# Vectary OBJ Export units=in
mtllib MODEL-TEST.mtl
o 000_Box
g Box
usemtl Box material_d1dc4749-e46f-424c-b444-cecb468dfbd1
v 50.000 0.000 0.000
v 0.000 0.000 -50.000
v 50.000 0.000 -50.000
v 0.000 0.000 0.000
v -50.000 0.000 -50.000
v -50.000 0.000 0.000
v 50.000 -0.000 50.000
v 0.000 -0.000 50.000
v -50.000 -0.000 50.000
v 50.000 50.000 -50.000
v 50.000 50.000 0.000
v 50.000 50.000 50.000
v 0.000 50.000 50.000
v -50.000 50.000 50.000
v -50.000 50.000 0.000
v -50.000 50.000 -50.000
v 50.000 100.000 -50.000
v 50.000 100.000 0.000
v 50.000 100.000 50.000
v 0.000 100.000 50.000
v -50.000 100.000 50.000
v -50.000 100.000 0.000
v -50.000 100.000 -50.000
v 0.000 100.000 0.000
v 0.000 100.000 -50.000
v 0.000 50.000 -50.000
vt 1.00000 0.50000
vt 0.50000 0.00000
vt 1.00000 0.00000
vt 0.50000 0.50000
vt 0.50000 0.50000
vt 0.00000 0.00000
vt 0.50000 0.00000
vt 0.00000 0.50000
vt 1.00000 1.00000
vt 0.50000 0.50000
vt 1.00000 0.50000
vt 0.50000 1.00000
vt 0.50000 1.00000
vt 0.00000 0.50000
vt 0.50000 0.50000
vt 0.00000 1.00000
vt 1.00000 0.50000
vt 0.50000 0.00000
vt 1.00000 0.00000
vt 0.50000 0.50000
vt 0.50000 0.50000
vt 0.00000 0.00000
vt 0.50000 0.00000
vt 0.00000 0.50000
vt 1.00000 0.50000
vt 0.50000 0.00000
vt 1.00000 0.00000
vt 0.50000 0.50000
vt 0.50000 0.50000
vt 0.00000 0.00000
vt 0.50000 0.00000
vt 0.00000 0.50000
vt 1.00000 0.50000
vt 0.50000 0.00000
vt 1.00000 0.00000
vt 0.50000 0.50000
vt 0.50000 0.50000
vt 0.00000 0.00000
vt 0.50000 0.00000
vt 0.00000 0.50000
vt 1.00000 1.00000
vt 0.50000 0.50000
vt 1.00000 0.50000
vt 0.50000 1.00000
vt 0.50000 1.00000
vt 0.00000 0.50000
vt 0.50000 0.50000
vt 0.00000 1.00000
vt 1.00000 1.00000
vt 0.50000 0.50000
vt 1.00000 0.50000
vt 0.50000 1.00000
vt 0.50000 1.00000
vt 0.00000 0.50000
vt 0.50000 0.50000
vt 0.00000 1.00000
vt 1.00000 1.00000
vt 0.50000 0.50000
vt 1.00000 0.50000
vt 0.50000 1.00000
vt 0.50000 1.00000
vt 0.00000 0.50000
vt 0.50000 0.50000
vt 0.00000 1.00000
vt 1.00000 0.50000
vt 0.50000 0.00000
vt 1.00000 0.00000
vt 0.50000 0.50000
vt 0.50000 0.50000
vt 0.00000 0.00000
vt 0.50000 0.00000
vt 0.00000 0.50000
vt 1.00000 1.00000
vt 0.50000 0.50000
vt 1.00000 0.50000
vt 0.50000 1.00000
vt 0.50000 1.00000
vt 0.00000 0.50000
vt 0.50000 0.50000
vt 0.00000 1.00000
vt 0.00000 0.50000
vt 0.50000 1.00000
vt 0.00000 1.00000
vt 0.50000 0.50000
vt 0.50000 0.50000
vt 1.00000 1.00000
vt 0.50000 1.00000
vt 1.00000 0.50000
vt 0.00000 0.00000
vt 0.50000 0.50000
vt 0.00000 0.50000
vt 0.50000 0.00000
vt 0.50000 0.00000
vt 1.00000 0.50000
vt 0.50000 0.50000
vt 1.00000 0.00000
vn 0.00000 -1.00000 -0.00000
vn 0.00000 -1.00000 -0.00000
vn 0.00000 -1.00000 -0.00000
vn 0.00000 -1.00000 -0.00000
vn 0.00000 -1.00000 -0.00000
vn 0.00000 -1.00000 -0.00000
vn 0.00000 -1.00000 -0.00000
vn 0.00000 -1.00000 -0.00000
vn 0.00000 -1.00000 -0.00000
vn 0.00000 -1.00000 -0.00000
vn 0.00000 -1.00000 -0.00000
vn 0.00000 -1.00000 -0.00000
vn 0.00000 -1.00000 -0.00000
vn 0.00000 -1.00000 -0.00000
vn 0.00000 -1.00000 -0.00000
vn 0.00000 -1.00000 -0.00000
vn 1.00000 0.00000 0.00000
vn 1.00000 0.00000 0.00000
vn 1.00000 0.00000 0.00000
vn 1.00000 0.00000 0.00000
vn 1.00000 0.00000 0.00000
vn 1.00000 0.00000 0.00000
vn 1.00000 0.00000 0.00000
vn 1.00000 0.00000 0.00000
vn 0.00000 -0.00000 1.00000
vn 0.00000 -0.00000 1.00000
vn 0.00000 -0.00000 1.00000
vn 0.00000 -0.00000 1.00000
vn 0.00000 -0.00000 1.00000
vn 0.00000 -0.00000 1.00000
vn 0.00000 -0.00000 1.00000
vn 0.00000 -0.00000 1.00000
vn -1.00000 0.00000 0.00000
vn -1.00000 0.00000 0.00000
vn -1.00000 0.00000 0.00000
vn -1.00000 0.00000 0.00000
vn -1.00000 0.00000 0.00000
vn -1.00000 0.00000 0.00000
vn -1.00000 0.00000 0.00000
vn -1.00000 0.00000 0.00000
vn 1.00000 0.00000 0.00000
vn 1.00000 0.00000 0.00000
vn 1.00000 0.00000 0.00000
vn 1.00000 0.00000 0.00000
vn 1.00000 0.00000 0.00000
vn 1.00000 0.00000 0.00000
vn 1.00000 0.00000 0.00000
vn 1.00000 0.00000 0.00000
vn 0.00000 -0.00000 1.00000
vn 0.00000 -0.00000 1.00000
vn 0.00000 -0.00000 1.00000
vn 0.00000 -0.00000 1.00000
vn 0.00000 -0.00000 1.00000
vn 0.00000 -0.00000 1.00000
vn 0.00000 -0.00000 1.00000
vn 0.00000 -0.00000 1.00000
vn -1.00000 0.00000 0.00000
vn -1.00000 0.00000 0.00000
vn -1.00000 0.00000 0.00000
vn -1.00000 0.00000 0.00000
vn -1.00000 0.00000 0.00000
vn -1.00000 0.00000 0.00000
vn -1.00000 0.00000 0.00000
vn -1.00000 0.00000 0.00000
vn 0.00000 1.00000 0.00000
vn 0.00000 1.00000 0.00000
vn 0.00000 1.00000 0.00000
vn 0.00000 1.00000 0.00000
vn 0.00000 1.00000 0.00000
vn 0.00000 1.00000 0.00000
vn 0.00000 1.00000 0.00000
vn 0.00000 1.00000 0.00000
vn 0.00000 1.00000 0.00000
vn 0.00000 1.00000 0.00000
vn 0.00000 1.00000 0.00000
vn 0.00000 1.00000 0.00000
vn 0.00000 1.00000 0.00000
vn 0.00000 1.00000 0.00000
vn 0.00000 1.00000 0.00000
vn 0.00000 1.00000 0.00000
vn 0.00000 0.00000 -1.00000
vn 0.00000 0.00000 -1.00000
vn 0.00000 0.00000 -1.00000
vn 0.00000 0.00000 -1.00000
vn 0.00000 0.00000 -1.00000
vn 0.00000 0.00000 -1.00000
vn 0.00000 0.00000 -1.00000
vn 0.00000 0.00000 -1.00000
vn 0.00000 0.00000 -1.00000
vn 0.00000 0.00000 -1.00000
vn 0.00000 0.00000 -1.00000
vn 0.00000 0.00000 -1.00000
vn 0.00000 0.00000 -1.00000
vn 0.00000 0.00000 -1.00000
vn 0.00000 0.00000 -1.00000
vn 0.00000 0.00000 -1.00000
f 3/3/3 1/1/1 4/4/4 2/2/2 
f 2/7/7 4/5/5 6/8/8 5/6/6 
f 1/11/11 7/9/9 8/12/12 4/10/10 
f 4/15/15 8/13/13 9/16/16 6/14/14 
f 3/19/19 10/17/17 11/20/20 1/18/18 
f 1/23/23 11/21/21 12/24/24 7/22/22 
f 7/27/27 12/25/25 13/28/28 8/26/26 
f 8/31/31 13/29/29 14/32/32 9/30/30 
f 9/35/35 14/33/33 15/36/36 6/34/34 
f 6/39/39 15/37/37 16/40/40 5/38/38 
f 10/43/43 17/41/41 18/44/44 11/42/42 
f 11/47/47 18/45/45 19/48/48 12/46/46 
f 12/51/51 19/49/49 20/52/52 13/50/50 
f 13/55/55 20/53/53 21/56/56 14/54/54 
f 14/59/59 21/57/57 22/60/60 15/58/58 
f 15/63/63 22/61/61 23/64/64 16/62/62 
f 19/67/67 18/65/65 24/68/68 20/66/66 
f 20/71/71 24/69/69 22/72/72 21/70/70 
f 18/75/75 17/73/73 25/76/76 24/74/74 
f 24/79/79 25/77/77 23/80/80 22/78/78 
f 17/83/83 10/81/81 26/84/84 25/82/82 
f 25/87/87 26/85/85 16/88/88 23/86/86 
f 10/91/91 3/89/89 2/92/92 26/90/90 
f 26/95/95 2/93/93 5/96/96 16/94/94