{"asset":{"version":"2.0","generator":"VECTARY"},"nodes":[{"translation":[0,0,0],"scale":[0.0254,0.0254,0.0254],"rotation":[-0.7071067811865475,0,0,0.7071067811865476],"name":"Box","mesh":0},{"translation":[-3.321401094049315,5.630215020506289,7.2573937923781715],"scale":[1,1,1],"rotation":[-0.24172882512295824,-0.2063380537556545,-0.052686755066978175,0.9466867953645044],"name":"Camera","camera":0}],"materials":[{"pbrMetallicRoughness":{"baseColorFactor":[0.6120655998656237,0.6120655998656237,0.6120655998656237,1],"metallicFactor":0,"roughnessFactor":0.2},"name":"Box material","emissiveFactor":[0,0,0],"alphaMode":"OPAQUE","doubleSided":false}],"meshes":[{"primitives":[{"mode":4,"attributes":{"POSITION":1,"NORMAL":2,"TEXCOORD_0":3},"material":0,"indices":0}]}],"accessors":[{"bufferView":0,"byteOffset":0,"componentType":5125,"count":144,"type":"SCALAR"},{"bufferView":1,"byteOffset":0,"componentType":5126,"count":54,"max":[50,50,100],"min":[-50,-50,-1.1102230246251565e-14],"type":"VEC3"},{"bufferView":2,"byteOffset":0,"componentType":5126,"count":54,"type":"VEC3"},{"bufferView":3,"byteOffset":0,"componentType":5126,"count":54,"type":"VEC2"}],"bufferViews":[{"buffer":0,"byteOffset":0,"byteLength":576,"target":34963},{"buffer":0,"byteOffset":576,"byteLength":648,"target":34962},{"buffer":0,"byteOffset":1224,"byteLength":648,"target":34962},{"buffer":0,"byteOffset":1872,"byteLength":432,"target":34962}],"cameras":[{"name":"Camera","type":"perspective","extras":{"targetDistance":9.094665739335884},"perspective":{"aspectRatio":1.3642533936651584,"yfov":0.6108652381980153,"zfar":852.6665647512385,"znear":0.060773673750785025}}],"scene":0,"scenes":[{"nodes":[0,1],"name":"model"}],"extensionsUsed":["KHR_texture_transform"],"buffers":[{"byteLength":2304,"uri":"model.bin"}]}